Coordinates
version=1
nRows=17
nColumns=40
inDegrees=yes

Units are S.I. units (second, meters, Newtons, ...)
Angles are in degrees.

endheader
time	pelvis_tilt	pelvis_list	pelvis_rotation	pelvis_tx	pelvis_ty	pelvis_tz	hip_flexion_r	hip_adduction_r	hip_rotation_r	knee_angle_r	knee_angle_r_beta	ankle_angle_r	subtalar_angle_r	mtp_angle_r	hip_flexion_l	hip_adduction_l	hip_rotation_l	knee_angle_l	knee_angle_l_beta	ankle_angle_l	subtalar_angle_l	mtp_angle_l	lumbar_extension	lumbar_bending	lumbar_rotation	arm_flex_r	arm_add_r	arm_rot_r	elbow_flex_r	pro_sup_r	wrist_flex_r	wrist_dev_r	arm_flex_l	arm_add_l	arm_rot_l	elbow_flex_l	pro_sup_l	wrist_flex_l	wrist_dev_l
      0.38000000	     -3.94917595	     -0.72233578	      6.00560394	      0.33221011	      0.87832207	     -0.41648031	     46.02449904	     -1.48613220	     -7.98018799	    -32.37745318	     -0.56509316	    -21.53409945	    -10.64398687	     22.55246308	     -6.95958801	     -0.25190310	     -3.28468976	    -61.64080448	     -1.07583499	    -21.76330626	     18.57824202	     21.89494041	     -9.78064299	      1.14146851	    -20.21907861	    -37.24706359	    -27.94989334	     -7.55951991	     83.82204054	     89.95437384	      0.00000000	      0.00000000	      1.97980886	     21.45678238	    -17.18315313	    121.96865327	     89.95437384	      0.00000000	      0.00000000
      0.39000000	     -3.65242239	      0.03226590	      5.82901698	      0.37994273	      0.87545572	     -0.41718139	     43.39430441	     -1.97764645	     -8.58952381	    -32.30869606	     -0.56389312	    -22.84810214	    -10.21509053	     22.40938704	     -4.35641117	     -0.70984313	     -2.40626952	    -67.67206646	     -1.18110037	    -19.25401306	     18.95632859	     24.26715849	     -9.54489485	      0.61858694	    -19.00555303	    -35.46448388	    -27.03889402	     -6.77933695	     83.34523119	     89.95437384	      0.00000000	      0.00000000	     -0.76001246	     21.76640444	    -16.89194030	    118.60825438	     89.95437384	      0.00000000	      0.00000000
      0.40000000	     -3.00459899	      0.60199926	      5.54255275	      0.42757461	      0.87228082	     -0.41768485	     39.89385355	     -1.79165694	     -7.67288179	    -32.01143437	     -0.55870493	    -17.43106278	     -9.69740745	     21.55260458	     -1.93692811	     -0.87846636	     -1.46244414	    -73.42700367	     -1.28154297	    -17.60335393	     19.15885622	     24.16234580	     -9.68500065	      0.34709217	    -17.45155271	    -33.55868342	    -26.09594295	     -6.02831209	     83.07654359	     89.95437384	      0.00000000	      0.00000000	     -3.28799030	     22.15125776	    -16.60553631	    114.73674167	     89.95437384	      0.00000000	      0.00000000
      0.41000000	     -2.20935634	      0.85565926	      5.30866237	      0.47522655	      0.86818049	     -0.41788688	     36.23996477	     -1.32977300	     -7.40399356	    -33.13163291	     -0.57825608	     -8.25756520	    -10.67922024	     19.96429713	      0.64470122	     -0.49282575	     -0.46583751	    -79.13969626	     -1.38124827	    -16.13495952	     19.28196337	     24.12611151	     -9.93728241	      0.42716962	    -15.79280965	    -31.51663566	    -25.17337775	     -5.29642400	     82.99909795	     89.95437384	      0.00000000	      0.00000000	     -5.83248884	     22.73271536	    -16.32418635	    110.71768338	     89.95437384	      0.00000000	      0.00000000
      0.42000000	     -2.10947252	      0.86621081	      5.06552063	      0.52116227	      0.86212713	     -0.41872920	     34.40528483	     -1.37522612	     -8.49751755	    -37.12465942	     -0.64794754	      1.08674803	     -5.59543838	     15.97525997	      4.56964088	      0.01486969	      0.43037778	    -85.11416450	     -1.48552241	    -13.99492420	     19.31285219	     24.97529270	     -9.54164729	      0.85825368	    -14.02260097	    -29.36233174	    -24.53662905	     -4.46987528	     83.33359429	     89.95437384	      0.00000000	      0.00000000	     -8.37484149	     22.91757615	    -15.52148987	    106.36898761	     89.95437384	      0.00000000	      0.00000000
      0.43000000	     -2.09403395	      0.49105709	      4.35273710	      0.56455710	      0.85600736	     -0.41870507	     33.59046817	     -0.38197341	     -8.46515284	    -41.53933210	     -0.72499811	      6.29225342	     -6.50548618	     13.63205095	      9.15193626	      0.99118726	      1.51725520	    -90.87452509	     -1.58605967	    -12.16448418	     19.31553548	     24.82413297	     -9.41743521	      1.69307540	    -11.66159069	    -26.65713643	    -23.95907940	     -3.55324274	     83.77090973	     89.95437384	      0.00000000	      0.00000000	    -10.52975434	     23.18224939	    -14.45334599	    102.06205446	     89.95437384	      0.00000000	      0.00000000
      0.44000000	     -2.43849068	     -0.40869959	      3.67711311	      0.60543941	      0.84971396	     -0.41883658	     33.66006403	      1.10824512	     -7.99663365	    -46.35265301	     -0.80900641	      9.64652761	     -7.97111220	     11.57934968	     14.85028650	      2.23988021	      1.90587151	    -96.41222763	     -1.68271081	    -10.56024160	     19.29258329	     24.52882750	     -9.25223685	      3.11741115	     -9.33238097	    -23.32582513	    -23.66195985	     -2.37713839	     84.28126428	     89.95437384	      0.00000000	      0.00000000	    -12.59210822	     23.13938244	    -12.94461377	     97.94523049	     89.95437384	      0.00000000	      0.00000000
      0.45000000	     -1.42489475	     -1.07917426	      2.38805588	      0.64836993	      0.84772621	     -0.41823953	     31.14962247	      2.83506756	     -6.63896011	    -49.74218137	     -0.86816484	     12.93993560	     -8.68127992	     10.55104464	     18.68228761	      3.34787252	      2.56974057	   -100.17592229	     -1.74839968	     -9.34348264	     19.26368293	     24.22677897	    -10.73253705	      4.15844809	     -6.46920550	    -19.63597086	    -23.40218783	     -0.85839428	     84.79533286	     89.95437384	      0.00000000	      0.00000000	    -14.65944123	     23.10124037	    -11.17814689	     93.97087151	     89.95437384	      0.00000000	      0.00000000
      0.46000000	     -0.85190609	     -1.76539468	      0.42669064	      0.69146667	      0.84765798	     -0.41654568	     28.06606659	      4.95479870	     -4.00960165	    -51.34902981	     -0.89620964	     15.12700422	     -8.36172383	      9.37659396	     23.06134540	      4.78515027	      3.65470961	   -102.89264658	     -1.79581546	     -8.20509588	     19.21391480	     23.98312679	    -11.93261203	      4.90955231	     -3.35073445	    -15.50202614	    -23.06862177	      1.02710342	     85.05627727	     89.95437384	      0.00000000	      0.00000000	    -17.27435746	     22.63935167	     -8.43527185	     90.18781928	     89.95437384	      0.00000000	      0.00000000
      0.47000000	     -0.87202567	     -1.87652365	     -0.87324658	      0.73507592	      0.84793367	     -0.41654047	     24.80601555	      5.69122225	     -2.26795760	    -51.86793274	     -0.90526620	     17.11668613	     -8.15005437	      8.66783097	     28.17571002	      5.12680144	      4.12321356	   -104.51432742	     -1.82411913	     -7.66767019	     19.18535911	     23.85199566	    -12.34837165	      5.15473963	     -0.72841170	    -12.30344744	    -22.36994600	      2.03713110	     86.34250543	     89.95437384	      0.00000000	      0.00000000	    -19.56892686	     22.17415407	     -5.89655323	     86.23779628	     89.95437384	      0.00000000	      0.00000000
      0.48000000	     -1.11471972	     -1.49008551	     -1.99746911	      0.77941773	      0.84850669	     -0.41595235	     21.36584954	      5.66282784	     -0.78412665	    -51.63726651	     -0.90124032	     18.35817760	     -7.83077145	      7.98903959	     33.43727044	      5.04889588	      4.68970612	   -105.12839266	     -1.83483659	     -6.84926087	     19.18562025	     23.74181069	    -12.28131051	      4.67453236	      1.48895740	     -9.55465474	    -21.40151752	      2.94404359	     88.16242469	     89.95437384	      0.00000000	      0.00000000	    -22.16064239	     22.36045543	     -3.48298236	     83.28642295	     89.95437384	      0.00000000	      0.00000000
      0.49000000	     -1.41698823	     -0.11998159	     -3.05452450	      0.82374994	      0.84970371	     -0.41543590	     18.08330658	      3.97437445	      0.01021122	    -51.08835118	     -0.89165994	     16.54732258	     -8.90407761	    -13.07798190	     38.48418696	      4.11350188	      5.88248874	   -104.61111089	     -1.82580832	     -6.32625376	     19.18213606	     24.30055300	    -11.93195018	      2.95508567	      3.16596967	     -6.88573494	    -20.29160099	      4.06730087	     90.20160113	     89.95437384	      0.00000000	      0.00000000	    -25.02515606	     22.78280968	     -0.65067666	     81.33950735	     89.95437384	      0.00000000	      0.00000000
      0.50000000	     -1.43622674	      0.73464757	     -3.49875458	      0.86811473	      0.85275382	     -0.41544454	     14.35312013	      2.62992494	      0.02284280	    -50.26184333	     -0.87723465	     15.72698050	     -8.45694062	    -13.07109098	     42.93901792	      3.47489287	      6.46045924	   -103.03928583	     -1.79837480	     -6.25925986	     19.17488745	     24.27868407	    -11.83398317	      1.83360215	      4.65337930	     -4.90866561	    -19.07540713	      4.49862304	     92.82901828	     89.95437384	      0.00000000	      0.00000000	    -27.33294531	     23.26053906	      1.81622007	     79.83038408	     89.95437384	      0.00000000	      0.00000000
      0.51000000	     -1.25101949	      1.62631655	     -3.76957073	      0.91322955	      0.85724885	     -0.41574258	     10.50881722	      0.97970276	     -0.37499840	    -49.33219368	     -0.86100921	     13.73969705	     -7.44202653	    -12.62627987	     46.53537434	      2.66290181	      7.02767358	   -100.36416316	     -1.75168510	     -6.64506368	     19.19328690	     23.88263116	    -11.82739590	      0.63623867	      5.92919762	     -3.25974420	    -18.06369106	      5.08885736	     95.60510397	     89.95437384	      0.00000000	      0.00000000	    -29.61239835	     23.71497438	      4.24875661	     78.92785849	     89.95437384	      0.00000000	      0.00000000
      0.52000000	     -1.10077963	      2.41347651	     -3.72729302	      0.95878118	      0.86229305	     -0.41623691	      6.68291027	     -0.53449089	     -0.82238008	    -48.04842534	     -0.83860322	     10.55366280	     -6.38851760	    -11.97638943	     49.60749885	      1.85547419	      7.47762012	    -96.84733853	     -1.69030493	     -7.00680945	     19.22992603	     23.78018963	    -11.72438523	     -0.45534237	      7.05145121	     -2.06889516	    -17.19488923	      5.55562237	     98.59052198	     89.95437384	      0.00000000	      0.00000000	    -31.68786456	     24.33755673	      6.37695116	     78.56863053	     89.95437384	      0.00000000	      0.00000000
      0.53000000	     -0.69498436	      3.29425086	     -3.58253655	      1.00550560	      0.86816798	     -0.41691165	      2.64567402	     -2.19101469	     -1.38184121	    -46.52973054	     -0.81209700	      6.03137174	     -5.47148142	    -11.02566917	     51.58300222	      0.88896591	      8.09296581	    -92.45714368	     -1.61368157	     -7.28320276	     19.24286479	     24.05176958	    -11.76572530	     -1.68025090	      7.98802706	     -1.20080695	    -16.56838061	      6.25090789	    101.68943686	     89.95437384	      0.00000000	      0.00000000	    -33.81406400	     25.04931398	      8.31965333	     78.60328078	     89.95437384	      0.00000000	      0.00000000
      0.54000000	     -0.27420507	      4.10190098	     -3.21414823	      1.05270732	      0.87436011	     -0.41794327	     -1.31655471	     -3.79965740	     -2.23929462	    -44.67229784	     -0.77967868	      0.24631634	     -4.33765534	     -9.55125889	     52.79229815	     -0.17110009	      8.57828754	    -87.24582748	     -1.52272695	     -7.43590061	     19.24095046	     24.91781862	    -11.78627292	     -2.80899972	      8.65382752	     -0.57877697	    -16.01685625	      7.01056147	    104.84671050	     89.95437384	      0.00000000	      0.00000000	    -35.90628022	     25.77806173	     10.01207201	     79.01405901	     89.95437384	      0.00000000	      0.00000000
